<svg xmlns="http://www.w3.org/2000/svg" width="1600" height="900" viewBox="0 0 1600 900">
  <defs>
    <linearGradient id="g" x1="0" y1="0" x2="1" y2="1">
      <stop offset="0" stop-color="#0b1220"/>
      <stop offset="0.5" stop-color="#111827"/>
      <stop offset="1" stop-color="#1f2937"/>
    </linearGradient>
    <radialGradient id="r" cx="35%" cy="30%" r="70%">
      <stop offset="0" stop-color="#22d3ee" stop-opacity="0.35"/>
      <stop offset="0.5" stop-color="#a78bfa" stop-opacity="0.18"/>
      <stop offset="1" stop-color="#000" stop-opacity="0"/>
    </radialGradient>
    <filter id="blur" x="-20%" y="-20%" width="140%" height="140%">
      <feGaussianBlur stdDeviation="22"/>
    </filter>
  </defs>
  <rect width="1600" height="900" fill="url(#g)"/>
  <circle cx="520" cy="300" r="360" fill="url(#r)" filter="url(#blur)"/>
  <circle cx="1120" cy="620" r="360" fill="url(#r)" filter="url(#blur)"/>
  <g opacity="0.9" font-family="ui-sans-serif, system-ui" fill="#e5e7eb">
    <text x="96" y="142" font-size="52" font-weight="700">CarePack</text>
    <text x="96" y="198" font-size="24" fill="#9ca3af">Patient management system " Placeholder preview</text>
  </g>
  <g transform="translate(96,260)">
    <rect width="1408" height="540" rx="28" fill="#0b1020" fill-opacity="0.7" stroke="#ffffff" stroke-opacity="0.12"/>
    <g transform="translate(42,42)">
      <rect width="420" height="120" rx="20" fill="#111827" stroke="#ffffff" stroke-opacity="0.10"/>
      <rect x="460" width="420" height="120" rx="20" fill="#111827" stroke="#ffffff" stroke-opacity="0.10"/>
      <rect x="920" width="420" height="120" rx="20" fill="#111827" stroke="#ffffff" stroke-opacity="0.10"/>
      <rect y="160" width="1298" height="310" rx="22" fill="#0f172a" stroke="#ffffff" stroke-opacity="0.08"/>
      <circle cx="64" cy="62" r="22" fill="#22d3ee" fill-opacity="0.9"/>
      <circle cx="524" cy="62" r="22" fill="#a78bfa" fill-opacity="0.9"/>
      <circle cx="984" cy="62" r="22" fill="#34d399" fill-opacity="0.9"/>
      <g fill="#9ca3af" font-family="ui-sans-serif, system-ui" font-size="18">
        <text x="110" y="68">Intake</text>
        <text x="570" y="68">Records</text>
        <text x="1030" y="68">Workflow</text>
      </g>
    </g>
  </g>
</svg>
