<svg xmlns="http://www.w3.org/2000/svg" width="1600" height="900" viewBox="0 0 1600 900">
  <defs>
    <linearGradient id="g" x1="0" y1="0" x2="1" y2="1">
      <stop offset="0" stop-color="#070a12"/>
      <stop offset="0.55" stop-color="#0b1020"/>
      <stop offset="1" stop-color="#0a0a0f"/>
    </linearGradient>
    <radialGradient id="r" cx="35%" cy="30%" r="70%">
      <stop offset="0" stop-color="#60a5fa" stop-opacity="0.28"/>
      <stop offset="0.55" stop-color="#22c55e" stop-opacity="0.12"/>
      <stop offset="1" stop-color="#000" stop-opacity="0"/>
    </radialGradient>
    <filter id="blur" x="-20%" y="-20%" width="140%" height="140%">
      <feGaussianBlur stdDeviation="22"/>
    </filter>
  </defs>
  <rect width="1600" height="900" fill="url(#g)"/>
  <circle cx="520" cy="280" r="380" fill="url(#r)" filter="url(#blur)"/>
  <circle cx="1180" cy="650" r="420" fill="url(#r)" filter="url(#blur)"/>
  <g opacity="0.92" font-family="ui-sans-serif, system-ui" fill="#e5e7eb">
    <text x="96" y="142" font-size="52" font-weight="700">HotCol</text>
    <text x="96" y="198" font-size="24" fill="#9ca3af">Hotel management SaaS " Placeholder preview</text>
  </g>
  <g transform="translate(96,260)">
    <rect width="1408" height="540" rx="28" fill="#0b1020" fill-opacity="0.65" stroke="#ffffff" stroke-opacity="0.12"/>
    <g transform="translate(42,42)">
      <rect width="320" height="456" rx="22" fill="#0f172a" stroke="#ffffff" stroke-opacity="0.08"/>
      <rect x="354" width="944" height="220" rx="22" fill="#111827" stroke="#ffffff" stroke-opacity="0.08"/>
      <rect x="354" y="252" width="944" height="204" rx="22" fill="#0f172a" stroke="#ffffff" stroke-opacity="0.08"/>
      <g fill="#9ca3af" font-size="18">
        <text x="28" y="52">Dashboard</text>
        <text x="28" y="92">Bookings</text>
        <text x="28" y="132">Rooms</text>
        <text x="28" y="172">Staff</text>
      </g>
      <circle cx="402" cy="62" r="10" fill="#60a5fa"/>
      <circle cx="430" cy="62" r="10" fill="#22c55e"/>
      <circle cx="458" cy="62" r="10" fill="#f59e0b"/>
    </g>
  </g>
</svg>
